<?xml version="1.0" encoding="UTF-8"?>
<svg version="1.1" xmlns="http://www.w3.org/2000/svg" width="200" height="200">
<path d="M0 0 C66 0 132 0 200 0 C200 66 200 132 200 200 C134 200 68 200 0 200 C0 134 0 68 0 0 Z " fill="#FEFEFE" transform="translate(0,0)"/>
<path d="M0 0 C3.15426392 1.37050936 4.6331118 2.85297833 6 6 C6.70224003 9.02012322 6.986235 11.90287409 7 15 C7.71027344 15.06058594 8.42054687 15.12117188 9.15234375 15.18359375 C10.07144531 15.26738281 10.99054688 15.35117188 11.9375 15.4375 C13.31228516 15.55931641 13.31228516 15.55931641 14.71484375 15.68359375 C17 16 17 16 18 17 C18.27644182 18.7482158 18.49257519 20.50602548 18.68359375 22.265625 C18.80565186 23.37244629 18.92770996 24.47926758 19.0534668 25.61962891 C19.24356323 27.4166626 19.24356323 27.4166626 19.4375 29.25 C19.56874268 30.4776709 19.69998535 31.7053418 19.83520508 32.97021484 C20.10124261 35.4737338 20.36516002 37.97747896 20.62695312 40.48144531 C20.94894112 43.51841584 21.29001738 46.55217666 21.640625 49.5859375 C23.12757039 63.28707714 23 75.98084021 23 90 C2.54 90 -17.92 90 -39 90 C-39 74.28280784 -38.84086931 59.1942655 -37.40087891 43.62548828 C-37.11807175 40.54964767 -36.85700537 37.47243057 -36.59765625 34.39453125 C-36.42312191 32.42176429 -36.24738988 30.44910282 -36.0703125 28.4765625 C-35.99313995 27.56427887 -35.91596741 26.65199524 -35.8364563 25.71206665 C-35.75652435 24.87203094 -35.67659241 24.03199524 -35.59423828 23.16650391 C-35.49431076 22.06382675 -35.49431076 22.06382675 -35.3923645 20.93887329 C-35 19 -35 19 -33 16 C-30 15.6875 -30 15.6875 -27 16 C-26.34 16.66 -25.68 17.32 -25 18 C-22.69 17.34 -20.38 16.68 -18 16 C-17.95101562 15.39671875 -17.90203125 14.7934375 -17.8515625 14.171875 C-17.77679688 13.37265625 -17.70203125 12.5734375 -17.625 11.75 C-17.55539063 10.96109375 -17.48578125 10.1721875 -17.4140625 9.359375 C-16.98492887 6.914123 -16.21399362 5.15163097 -15 3 C-19.3590077 6.48720616 -19.94552183 9.72760915 -21 15 C-21.66 15 -22.32 15 -23 15 C-23.66964286 7.23214286 -23.66964286 7.23214286 -20.625 3.5625 C-15.11828369 -1.81310401 -7.25512325 -0.74374128 0 0 Z " fill="#FAAE1F" transform="translate(72,55)"/>
<path d="M0 0 C0.33 0 0.66 0 1 0 C2.14538574 13.72417552 2 27.15254702 2 41 C-16.48 41 -34.96 41 -54 41 C-54 28.625 -54 28.625 -53.34375 22.58203125 C-53.20839844 21.30908203 -53.07304688 20.03613281 -52.93359375 18.72460938 C-52.79050781 17.43361328 -52.64742187 16.14261719 -52.5 14.8125 C-52.35493657 13.465552 -52.21040203 12.11854693 -52.06640625 10.77148438 C-51.71610966 7.5137261 -51.3605347 4.25663836 -51 1 C-50.34 1.33 -49.68 1.66 -49 2 C-48.97294692 4.41674224 -48.95313562 6.8331794 -48.9375 9.25 C-48.92912109 9.93191406 -48.92074219 10.61382812 -48.91210938 11.31640625 C-48.89571608 14.69342554 -48.94371232 17.77291639 -50 21 C-49.01 21.33 -48.02 21.66 -47 22 C-47 22.33 -47 22.66 -47 23 C-43.95613276 23.08226668 -41.92824652 22.97608217 -39 22 C-37.00038436 21.96079185 -34.99950636 21.95556653 -33 22 C-32.67 20.35 -32.34 18.7 -32 17 C-31.67 17 -31.34 17 -31 17 C-31 18.98 -31 20.96 -31 23 C-29.96875 22.814375 -28.9375 22.62875 -27.875 22.4375 C-24.22403126 22.02529385 -21.57035357 22.33574817 -18 23 C-17.34 22.67 -16.68 22.34 -16 22 C-13.3276379 21.86584528 -10.67749512 21.95681459 -8 22 C-8 20.68 -8 19.36 -8 18 C-6.68 17.34 -5.36 16.68 -4 16 C-4 13.69 -4 11.38 -4 9 C-2.68 9 -1.36 9 0 9 C0 6.03 0 3.06 0 0 Z " fill="#FCAE1C" transform="translate(91,103)"/>
<path d="M0 0 C1.27327148 0.07057617 1.27327148 0.07057617 2.57226562 0.14257812 C3.45205078 0.20251953 4.33183594 0.26246094 5.23828125 0.32421875 C6.09873047 0.37255859 6.95917969 0.42089844 7.84570312 0.47070312 C24.25111217 1.44736274 24.25111217 1.44736274 29.55078125 4.01171875 C29.55078125 3.35171875 29.55078125 2.69171875 29.55078125 2.01171875 C35.17578125 1.76171875 35.17578125 1.76171875 38.55078125 4.01171875 C38.86328125 7.01171875 38.86328125 7.01171875 38.55078125 10.01171875 C37.89078125 10.67171875 37.23078125 11.33171875 36.55078125 12.01171875 C35.56078125 12.01171875 34.57078125 12.01171875 33.55078125 12.01171875 C33.55078125 13.33171875 33.55078125 14.65171875 33.55078125 16.01171875 C25.64125025 18.17210984 18.65076702 17.88293815 10.55078125 17.01171875 C9.89078125 17.01171875 9.23078125 17.01171875 8.55078125 17.01171875 C7.92042969 17.00011719 7.29007813 16.98851563 6.640625 16.9765625 C4.61080705 16.95077534 2.58050731 16.97950088 0.55078125 17.01171875 C0.22078125 17.34171875 -0.10921875 17.67171875 -0.44921875 18.01171875 C-3.14052079 18.2950137 -4.80839014 18.43742286 -7.1015625 16.9140625 C-9.10968339 14.0794107 -8.7383702 11.74648426 -8.63671875 8.32421875 C-8.60964844 7.14472656 -8.58257812 5.96523437 -8.5546875 4.75 C-8.51988281 3.84636719 -8.48507813 2.94273438 -8.44921875 2.01171875 C-5.44666583 0.26927594 -3.45391391 -0.20916161 0 0 Z " fill="#DDAA44" transform="translate(49.44921875,108.98828125)"/>
<path d="M0 0 C0.77085937 0.0721875 1.54171875 0.144375 2.3359375 0.21875 C3.33882812 0.3115625 4.34171875 0.404375 5.375 0.5 C6.87160156 0.63921875 6.87160156 0.63921875 8.3984375 0.78125 C10.89703736 1.02792947 10.89703736 1.02792947 13 1 C13 1.66 13 2.32 13 3 C14.423125 2.9071875 14.423125 2.9071875 15.875 2.8125 C16.90625 2.874375 17.9375 2.93625 19 3 C19.99 4.485 19.99 4.485 21 6 C21.33 5.01 21.66 4.02 22 3 C23.32 3 24.64 3 26 3 C26 7.29 26 11.58 26 16 C23.525 15.505 23.525 15.505 21 15 C20.67 14.34 20.34 13.68 20 13 C19.34 14.32 18.68 15.64 18 17 C15.36 17 12.72 17 10 17 C9.67 16.01 9.34 15.02 9 14 C8.01 13.67 7.02 13.34 6 13 C5.67 14.32 5.34 15.64 5 17 C0.05 17 -4.9 17 -10 17 C-10 12.38 -10 7.76 -10 3 C-8.68 3 -7.36 3 -6 3 C-5.34 4.32 -4.68 5.64 -4 7 C-3.67 5.68 -3.34 4.36 -3 3 C-1.68 3 -0.36 3 1 3 C0.67 2.01 0.34 1.02 0 0 Z " fill="#FCFCEB" transform="translate(136,107)"/>
<path d="M0 0 C2.625 -0.1875 2.625 -0.1875 5 0 C4.93006836 0.61254639 4.86013672 1.22509277 4.78808594 1.85620117 C2.11162614 25.53340381 0.0577646 49.26260846 -2 73 C-2.99 73 -3.98 73 -5 73 C-5.09057196 52.72865424 -4.81578692 32.39318815 -3.0625 12.1875 C-2.98789551 11.28757324 -2.91329102 10.38764648 -2.83642578 9.46044922 C-2.75763184 8.64205566 -2.67883789 7.82366211 -2.59765625 6.98046875 C-2.53070557 6.27817139 -2.46375488 5.57587402 -2.39477539 4.85229492 C-2 3 -2 3 0 0 Z " fill="#EA7D0C" transform="translate(39,71)"/>
<path d="M0 0 C1.62463842 -0.05395478 3.24978541 -0.09277195 4.875 -0.125 C5.77992188 -0.14820312 6.68484375 -0.17140625 7.6171875 -0.1953125 C10 0 10 0 12 2 C12.33 1.67 12.66 1.34 13 1 C15.9375 0.8125 15.9375 0.8125 19 1 C22.42025316 4.42025316 22.95344801 8.71982025 23.125 13.4375 C23.08375 14.283125 23.0425 15.12875 23 16 C21.02 16 19.04 16 17 16 C16.67 15.34 16.34 14.68 16 14 C15.67 14.33 15.34 14.66 15 15 C12.46950598 15.07313567 9.96695163 15.09247527 7.4375 15.0625 C6.37112305 15.05573242 6.37112305 15.05573242 5.28320312 15.04882812 C3.52209987 15.03700864 1.76103964 15.01907263 0 15 C-0.17379824 10.69125204 0.54280602 8.58340788 3 5 C2.01 5 1.02 5 0 5 C0 3.35 0 1.7 0 0 Z " fill="#FDF0C6" transform="translate(164,109)"/>
<path d="M0 0 C0.66 0.33 1.32 0.66 2 1 C1.525625 1.474375 1.05125 1.94875 0.5625 2.4375 C-1.40153555 5.65851829 -1.48778749 8.26206274 -1.69140625 11.9765625 C-2 14 -2 14 -4 16 C-6.32275177 16.40047444 -8.65739357 16.7397104 -11 17 C-11.33 16.34 -11.66 15.68 -12 15 C-13.98 15 -15.96 15 -18 15 C-19.09049728 17.18099456 -19.24899796 18.63509947 -19.46484375 21.05297852 C-19.54162354 21.89308975 -19.61840332 22.73320099 -19.69750977 23.59877014 C-19.77670654 24.51621506 -19.85590332 25.43365997 -19.9375 26.37890625 C-20.02249756 27.33780258 -20.10749512 28.29669891 -20.19506836 29.28465271 C-20.37529785 31.3332219 -20.55337129 33.3819817 -20.72949219 35.4309082 C-20.99208821 38.47090748 -21.26503303 41.50984126 -21.5390625 44.54882812 C-22.80161793 59.06350459 -23.41628147 73.40703664 -24 88 C-3.87 88 16.26 88 37 88 C37 88.33 37 88.66 37 89 C16.21 89 -4.58 89 -26 89 C-26 64 -26 64 -25 58 C-24.87678889 56.43302783 -24.7814988 54.86352449 -24.71875 53.29296875 C-24.66267578 52.04290039 -24.66267578 52.04290039 -24.60546875 50.76757812 C-24.53435917 49.02802719 -24.46406433 47.28844279 -24.39453125 45.54882812 C-24.35714844 44.72189453 -24.31976563 43.89496094 -24.28125 43.04296875 C-24.25095703 42.29039795 -24.22066406 41.53782715 -24.18945312 40.76245117 C-24 39 -24 39 -23 38 C-22.77210574 36.22309891 -22.60510212 34.43830032 -22.46484375 32.65234375 C-22.37783203 31.57275391 -22.29082031 30.49316406 -22.20117188 29.38085938 C-22.11416016 28.24455078 -22.02714844 27.10824219 -21.9375 25.9375 C-21.80118164 24.22723633 -21.80118164 24.22723633 -21.66210938 22.48242188 C-21.43735454 19.65524259 -21.21684289 16.82779536 -21 14 C-20.34 14 -19.68 14 -19 14 C-19 13.34 -19 12.68 -19 12 C-15.7 12 -12.4 12 -9 12 C-9 10.35 -9 8.7 -9 7 C-8.67 7 -8.34 7 -8 7 C-8 8.98 -8 10.96 -8 13 C-7.34 13 -6.68 13 -6 13 C-5.938125 11.783125 -5.87625 10.56625 -5.8125 9.3125 C-5.28836874 4.84150148 -3.49413605 2.86698342 0 0 Z " fill="#FAE5B9" transform="translate(57,57)"/>
<path d="M0 0 C1.05574219 -0.06864258 1.05574219 -0.06864258 2.1328125 -0.13867188 C6.10131765 -0.22350052 8.65706494 0.25042627 11.7421875 2.84765625 C15.29353003 6.92747237 14.92807031 11.15253377 14.625 16.3125 C14.59792969 17.19164063 14.57085937 18.07078125 14.54296875 18.9765625 C14.47270635 21.13127601 14.36509935 23.28471593 14.25 25.4375 C13.59 25.4375 12.93 25.4375 12.25 25.4375 C12.23582031 24.26832031 12.22164062 23.09914063 12.20703125 21.89453125 C12.16011562 20.34631543 12.11186831 18.79813956 12.0625 17.25 C12.05669922 16.48107422 12.05089844 15.71214844 12.04492188 14.91992188 C11.87502953 10.52159774 11.63269482 8.89521003 8.69921875 5.38671875 C7.89097656 4.74347656 7.08273438 4.10023437 6.25 3.4375 C6.58 3.9325 6.91 4.4275 7.25 4.9375 C8.68636358 8.52840894 8.37851462 11.58206127 8.25 15.4375 C7.59 15.4375 6.93 15.4375 6.25 15.4375 C6.12882812 14.81101562 6.00765625 14.18453125 5.8828125 13.5390625 C5.71523437 12.72179687 5.54765625 11.90453125 5.375 11.0625 C5.21257812 10.25039062 5.05015625 9.43828125 4.8828125 8.6015625 C4.38341068 6.25076077 4.38341068 6.25076077 2.25 4.4375 C-0.20741537 3.93735047 -0.20741537 3.93735047 -2.75 4.4375 C-6.07956166 7.47753456 -6.1690797 10.57618968 -6.36914062 14.83203125 C-6.40297852 15.99798828 -6.40297852 15.99798828 -6.4375 17.1875 C-6.47166016 17.98027344 -6.50582031 18.77304688 -6.54101562 19.58984375 C-6.62319104 21.53857504 -6.68828045 23.48801362 -6.75 25.4375 C-7.41 25.4375 -8.07 25.4375 -8.75 25.4375 C-8.80401695 22.52058475 -8.84368066 19.60467276 -8.875 16.6875 C-8.89175781 15.8625 -8.90851562 15.0375 -8.92578125 14.1875 C-8.93222656 13.38828125 -8.93867187 12.5890625 -8.9453125 11.765625 C-8.95578613 11.0324707 -8.96625977 10.29931641 -8.97705078 9.54394531 C-8.71777544 7.13853924 -7.94225925 5.52498506 -6.75 3.4375 C-11.1090077 6.92470616 -11.69552183 10.16510915 -12.75 15.4375 C-13.41 15.4375 -14.07 15.4375 -14.75 15.4375 C-15.41964286 7.66964286 -15.41964286 7.66964286 -12.375 4 C-8.38480729 0.10481187 -5.36112398 0.13931236 0 0 Z " fill="#19120F" transform="translate(63.75,54.5625)"/>
<path d="M0 0 C0.33 0 0.66 0 1 0 C1.23514734 10.04492815 0.5080325 19.83703749 -0.5 29.8125 C-0.64510403 31.29486592 -0.7896385 32.7772877 -0.93359375 34.25976562 C-1.28252329 37.84050938 -1.6390686 41.42044364 -2 45 C-2.99 45 -3.98 45 -5 45 C-5.30535107 32.8538131 -4.38403895 21.06091089 -3 9 C-2.34 9 -1.68 9 -1 9 C-0.67 6.03 -0.34 3.06 0 0 Z " fill="#E97F08" transform="translate(39,99)"/>
<path d="M0 0 C3.0625 0.3125 3.0625 0.3125 4.9375 1.375 C6.73080867 4.46347604 6.49091969 6.82393969 6.0625 10.3125 C4.06901037 13.19198502 2.91968274 14.12433793 -0.5 14.875 C-2.9375 14.3125 -2.9375 14.3125 -4.8125 12.25 C-6.24816817 8.50131089 -5.88511602 6.17585761 -4.9375 2.3125 C-2.9375 0.3125 -2.9375 0.3125 0 0 Z " fill="#EEB63F" transform="translate(117.9375,109.6875)"/>
<path d="M0 0 C2.475 0.495 2.475 0.495 5 1 C5.33 1.66 5.66 2.32 6 3 C6.33 2.01 6.66 1.02 7 0 C8.32 0 9.64 0 11 0 C11 4.29 11 8.58 11 13 C9.35 12.67 7.7 12.34 6 12 C5.67 11.34 5.34 10.68 5 10 C4.67 10.99 4.34 11.98 4 13 C2.68 13 1.36 13 0 13 C0 8.71 0 4.42 0 0 Z " fill="#ECBD58" transform="translate(151,110)"/>
<path d="M0 0 C2.31 0 4.62 0 7 0 C9 2 9 2 9.0625 4.3125 C9.041875 5.199375 9.02125 6.08625 9 7 C9.20625 7.886875 9.4125 8.77375 9.625 9.6875 C9.74875 10.450625 9.8725 11.21375 10 12 C8 14 8 14 6.0546875 14.1953125 C4.03645833 14.13020833 2.01822917 14.06510417 0 14 C0 9.38 0 4.76 0 0 Z " fill="#F0C367" transform="translate(101,110)"/>
<path d="M0 0 C1.32 0 2.64 0 4 0 C4 1.65 4 3.3 4 5 C4.99 5 5.98 5 7 5 C7 3.35 7 1.7 7 0 C8.32 0 9.64 0 11 0 C11 4.62 11 9.24 11 14 C9.68 14 8.36 14 7 14 C7 12.35 7 10.7 7 9 C6.01 9 5.02 9 4 9 C4 10.65 4 12.3 4 14 C2.68 14 1.36 14 0 14 C0 9.38 0 4.76 0 0 Z " fill="#1C0D00" transform="translate(53,111)"/>
<path d="M0 0 C2.95789355 0.51763137 3.69472373 1.08595858 5.5 3.4375 C5.89500857 6.48696616 5.63430156 9.34856412 5.5 12.4375 C1.87 12.4375 -1.76 12.4375 -5.5 12.4375 C-5.86190476 5.19940476 -5.86190476 5.19940476 -4.3125 1.9375 C-2.5 0.4375 -2.5 0.4375 0 0 Z " fill="#F8F8F6" transform="translate(63.5,57.5625)"/>
<path d="M0 0 C1.32 0 2.64 0 4 0 C4.66 1.32 5.32 2.64 6 4 C6.33 2.68 6.66 1.36 7 0 C7.99 0 8.98 0 10 0 C10 4.29 10 8.58 10 13 C8.68 13 7.36 13 6 13 C5.67 12.34 5.34 11.68 5 11 C4.67 11.66 4.34 12.32 4 13 C2.68 13 1.36 13 0 13 C0 8.71 0 4.42 0 0 Z " fill="#EBBB56" transform="translate(126,110)"/>
<path d="M0 0 C1.98 0 3.96 0 6 0 C6.99 4.29 7.98 8.58 9 13 C7.68 13 6.36 13 5 13 C4.67 12.34 4.34 11.68 4 11 C3.01 10.67 2.02 10.34 1 10 C1 10.99 1 11.98 1 13 C-0.32 13 -1.64 13 -3 13 C-2.68991116 11.39536551 -2.37683713 9.79130769 -2.0625 8.1875 C-1.88847656 7.29417969 -1.71445313 6.40085937 -1.53515625 5.48046875 C-1 3 -1 3 0 0 Z " fill="#EEBE55" transform="translate(141,110)"/>
<path d="M0 0 C6 0 6 0 9 2 C9.3125 5 9.3125 5 9 8 C8.34 8.66 7.68 9.32 7 10 C6.01 10 5.02 10 4 10 C4 11.32 4 12.64 4 14 C2.68 14 1.36 14 0 14 C0 9.38 0 4.76 0 0 Z " fill="#362009" transform="translate(79,111)"/>
<path d="M0 0 C1.65 0 3.3 0 5 0 C7.28571429 8.42857143 7.28571429 8.42857143 7 13 C6.01 13 5.02 13 4 13 C4 12.34 4 11.68 4 11 C2.68 11 1.36 11 0 11 C0 11.66 0 12.32 0 13 C-0.99 13 -1.98 13 -3 13 C-2.88490339 11.58249437 -2.75746342 10.16598831 -2.625 8.75 C-2.55539063 7.96109375 -2.48578125 7.1721875 -2.4140625 6.359375 C-1.98492887 3.914123 -1.21399362 2.15163097 0 0 Z " fill="#F1C056" transform="translate(178,110)"/>
<path d="M0 0 C3.125 -0.1875 3.125 -0.1875 6 0 C6 0.99 6 1.98 6 3 C5.01 3.33 4.02 3.66 3 4 C3 5.32 3 6.64 3 8 C3.99 8 4.98 8 6 8 C6.33 6.68 6.66 5.36 7 4 C7.66 4 8.32 4 9 4 C10.31668238 9.3864279 10.31668238 9.3864279 9 11.9375 C5.79938688 13.63782572 3.41195836 12.86849849 0 12 C-2.31332486 8.53001271 -2.33957563 7.07490752 -2 3 C-1.34 2.01 -0.68 1.02 0 0 Z " fill="#170A01" transform="translate(67,112)"/>
<path d="M0 0 C0.78375 0.04125 1.5675 0.0825 2.375 0.125 C2.375 1.445 2.375 2.765 2.375 4.125 C1.385 4.62 1.385 4.62 0.375 5.125 C1.365 5.785 2.355 6.445 3.375 7.125 C3.6875 9.625 3.6875 9.625 3.375 12.125 C2.715 12.785 2.055 13.445 1.375 14.125 C-2.25 13.75 -2.25 13.75 -5.625 13.125 C-5.295 11.805 -4.965 10.485 -4.625 9.125 C-3.635 9.125 -2.645 9.125 -1.625 9.125 C-2.615 8.465 -3.605 7.805 -4.625 7.125 C-4.9375 4.625 -4.9375 4.625 -4.625 2.125 C-2.625 0.125 -2.625 0.125 0 0 Z " fill="#1D0D02" transform="translate(47.625,110.875)"/>
<path d="M0 0 C2.97 0 5.94 0 9 0 C8.43454163 3.95820859 7.19097652 6.6659053 5 10 C6.32 10 7.64 10 9 10 C9 10.99 9 11.98 9 13 C6.03 13 3.06 13 0 13 C0.55728913 9.65626525 1.35173889 6.96687001 3 4 C2.01 4 1.02 4 0 4 C0 2.68 0 1.36 0 0 Z " fill="#ECB94F" transform="translate(164,110)"/>
<path d="M0 0 C2.625 -0.1875 2.625 -0.1875 5 0 C4.67 2.97 4.34 5.94 4 9 C3.67 8.34 3.34 7.68 3 7 C2.01 7 1.02 7 0 7 C-0.0501123 7.71655762 -0.10022461 8.43311523 -0.15185547 9.17138672 C-0.38343574 12.40668385 -0.62903668 15.64076592 -0.875 18.875 C-0.95363281 20.00292969 -1.03226563 21.13085938 -1.11328125 22.29296875 C-1.19707031 23.36933594 -1.28085937 24.44570312 -1.3671875 25.5546875 C-1.44050293 26.54968262 -1.51381836 27.54467773 -1.58935547 28.56982422 C-2 31 -2 31 -4 33 C-3.7655983 29.15980196 -3.52741808 25.31993079 -3.28125 21.48046875 C-3.09894801 18.62953666 -2.9323887 15.77852421 -2.78125 12.92578125 C-2.67296875 11.07533203 -2.67296875 11.07533203 -2.5625 9.1875 C-2.50191406 8.06730469 -2.44132812 6.94710937 -2.37890625 5.79296875 C-2 3 -2 3 0 0 Z " fill="#E28A2F" transform="translate(39,71)"/>
<path d="M0 0 C0.66 0.33 1.32 0.66 2 1 C1.525625 1.474375 1.05125 1.94875 0.5625 2.4375 C-1.40153555 5.65851829 -1.48778749 8.26206274 -1.69140625 11.9765625 C-2 14 -2 14 -4 16 C-6.32275177 16.40047444 -8.65739357 16.7397104 -11 17 C-11.33 16.34 -11.66 15.68 -12 15 C-14.52733235 14.34444881 -14.52733235 14.34444881 -17 14 C-17 13.67 -17 13.34 -17 13 C-13.37 13 -9.74 13 -6 13 C-5.9071875 11.1746875 -5.9071875 11.1746875 -5.8125 9.3125 C-5.28836874 4.84150148 -3.49413605 2.86698342 0 0 Z " fill="#E1BA6F" transform="translate(57,57)"/>
<path d="M0 0 C1.32 0.33 2.64 0.66 4 1 C4.33 2.32 4.66 3.64 5 5 C5.66 5 6.32 5 7 5 C7.33 3.68 7.66 2.36 8 1 C8 3.97 8 6.94 8 10 C7.34 10 6.68 10 6 10 C6 9.34 6 8.68 6 8 C4.68 7.67 3.36 7.34 2 7 C2 8.32 2 9.64 2 11 C1.34 11 0.68 11 0 11 C0 7.37 0 3.74 0 0 Z " fill="#F2B335" transform="translate(127,111)"/>
<path d="M0 0 C6.875 0.875 6.875 0.875 8 2 C8.04063832 3.66617115 8.042721 5.33388095 8 7 C7.67 6.34 7.34 5.68 7 5 C6.34 5 5.68 5 5 5 C4.67 6.65 4.34 8.3 4 10 C2.68 9.67 1.36 9.34 0 9 C0.33 7.35 0.66 5.7 1 4 C1.99 4 2.98 4 4 4 C4 3.01 4 2.02 4 1 C2.68 0.67 1.36 0.34 0 0 Z " fill="#381D02" transform="translate(69,111)"/>
<path d="M0 0 C1.17079102 0.01160156 1.17079102 0.01160156 2.36523438 0.0234375 C3.53022461 0.01183594 3.53022461 0.01183594 4.71875 0 C8.62825605 0.01346944 10.60720469 0.05975105 13.92773438 2.2734375 C10.35128589 3.5114389 7.59078672 3.02269821 3.92773438 2.2734375 C3.92773438 2.9334375 3.92773438 3.5934375 3.92773438 4.2734375 C-2.01226562 3.2834375 -2.01226562 3.2834375 -8.07226562 2.2734375 C-5.45410824 -0.34471989 -3.56758224 0.01231262 0 0 Z " fill="#ECAF31" transform="translate(75.072265625,108.7265625)"/>
<path d="M0 0 C1.64574566 -0.02688151 3.29161413 -0.04634123 4.9375 -0.0625 C5.85402344 -0.07410156 6.77054687 -0.08570312 7.71484375 -0.09765625 C10 0 10 0 11 1 C11.93119789 6.0698552 12.08997924 10.87118304 12 16 C10 14 10 14 9.8046875 11.3984375 C9.82789062 10.40070313 9.85109375 9.40296875 9.875 8.375 C9.89304687 7.37210937 9.91109375 6.36921875 9.9296875 5.3359375 C9.95289062 4.56507812 9.97609375 3.79421875 10 3 C7.03 2.67 4.06 2.34 1 2 C0.67 3.32 0.34 4.64 0 6 C0 4.02 0 2.04 0 0 Z " fill="#EDB43F" transform="translate(79,71)"/>
<path d="M0 0 C0.33 0 0.66 0 1 0 C1.33 6.27 1.66 12.54 2 19 C0.02 19 -1.96 19 -4 19 C-3.67 15.37 -3.34 11.74 -3 8 C-2.67 8 -2.34 8 -2 8 C-2 10.97 -2 13.94 -2 17 C-1.34 17 -0.68 17 0 17 C0 11.39 0 5.78 0 0 Z " fill="#B47E2F" transform="translate(57,63)"/>
<path d="M0 0 C1.65 0.33 3.3 0.66 5 1 C5 3.97 5 6.94 5 10 C4.01 10 3.02 10 2 10 C2 9.01 2 8.02 2 7 C0.68 7 -0.64 7 -2 7 C-2 5.02 -2 3.04 -2 1 C-1.67 2.32 -1.34 3.64 -1 5 C-0.01 5 0.98 5 2 5 C2 4.01 2 3.02 2 2 C1.34 2 0.68 2 0 2 C0 1.34 0 0.68 0 0 Z " fill="#EFB22D" transform="translate(105,111)"/>
<path d="M0 0 C0.33 0 0.66 0 1 0 C1.144375 1.093125 1.28875 2.18625 1.4375 3.3125 C1.88288104 6.93122987 1.88288104 6.93122987 3 10 C2.67 10.99 2.34 11.98 2 13 C2.99 13.33 3.98 13.66 5 14 C0.05 14 -4.9 14 -10 14 C-8.68 13.67 -7.36 13.34 -6 13 C-5.67 12.01 -5.34 11.02 -5 10 C-4.67 10.99 -4.34 11.98 -4 13 C-2.68 13 -1.36 13 0 13 C0 8.71 0 4.42 0 0 Z " fill="#FAE9B8" transform="translate(136,110)"/>
<path d="M0 0 C2.33294775 -0.04241723 4.66702567 -0.04092937 7 0 C8 1 8 1 8.0625 4.0625 C8.041875 5.031875 8.02125 6.00125 8 7 C7.34 5.68 6.68 4.36 6 3 C4.68 3.33 3.36 3.66 2 4 C2 6.64 2 9.28 2 12 C1.34 12 0.68 12 0 12 C0 8.04 0 4.08 0 0 Z " fill="#140601" transform="translate(80,112)"/>
<path d="M0 0 C0 0.33 0 0.66 0 1 C-1.98 1.66 -3.96 2.32 -6 3 C-6.34900558 6.71736641 -6.34900558 6.71736641 -4.5 9.8125 C-4.005 10.204375 -3.51 10.59625 -3 11 C-4.32 11 -5.64 11 -7 11 C-7.66 11.99 -8.32 12.98 -9 14 C-9 9.71 -9 5.42 -9 1 C-4.82091936 -1.08954032 -4.19589427 -1.16552619 0 0 Z " fill="#DBA539" transform="translate(50,110)"/>
<path d="M0 0 C3.26460973 1.80412643 4.88929795 2.83394693 7 6 C7.07905064 8.33199388 7.08798769 10.66832622 7 13 C6.01 13 5.02 13 4 13 C3.79503906 12.31292969 3.59007813 11.62585938 3.37890625 10.91796875 C3.10949219 10.01691406 2.84007813 9.11585937 2.5625 8.1875 C2.16224609 6.84751953 2.16224609 6.84751953 1.75390625 5.48046875 C1.19612127 3.64526945 0.60655425 1.81966274 0 0 Z " fill="#DFDDDE" transform="translate(69,57)"/>
<path d="M0 0 C1.32 0 2.64 0 4 0 C4 1.65 4 3.3 4 5 C4.66 5 5.32 5 6 5 C6.66 7.31 7.32 9.62 8 12 C6.68 12 5.36 12 4 12 C3.34 9.03 2.68 6.06 2 3 C1.34 3 0.68 3 0 3 C0 2.01 0 1.02 0 0 Z " fill="#EEB747" transform="translate(142,111)"/>
<path d="M0 0 C0.99 0.66 1.98 1.32 3 2 C3.3125 5.5 3.3125 5.5 3 9 C2.34 9.66 1.68 10.32 1 11 C-1.625 10.625 -1.625 10.625 -4 10 C-3.01 9.67 -2.02 9.34 -1 9 C-0.67 6.03 -0.34 3.06 0 0 Z " fill="#EFB94B" transform="translate(121,111)"/>
<path d="M0 0 C0.66 0 1.32 0 2 0 C2 1.32 2 2.64 2 4 C2.99 4 3.98 4 5 4 C4.01 6.97 3.02 9.94 2 13 C1.34 13 0.68 13 0 13 C0 8.71 0 4.42 0 0 Z " fill="#FEFAE0" transform="translate(162,110)"/>
<path d="M0 0 C0.33 0 0.66 0 1 0 C1 2.31 1 4.62 1 7 C1.66 7 2.32 7 3 7 C3.33 5.68 3.66 4.36 4 3 C4.33 4.98 4.66 6.96 5 9 C-0.44693314 9.09688221 -5.63904667 9.12862175 -11 8 C-11 7.67 -11 7.34 -11 7 C-7.37 7 -3.74 7 0 7 C0 4.69 0 2.38 0 0 Z " fill="#D9B66F" transform="translate(69,63)"/>
<path d="M0 0 C1.32 0 2.64 0 4 0 C4 4.62 4 9.24 4 14 C2.68 14 1.36 14 0 14 C0 12.02 0 10.04 0 8 C0.66 7.67 1.32 7.34 2 7 C2.65772428 3.97065509 2.65772428 3.97065509 3 1 C2.01 0.67 1.02 0.34 0 0 Z " fill="#3E260A" transform="translate(60,111)"/>
<path d="M0 0 C0.66 0 1.32 0 2 0 C2 0.99 2 1.98 2 3 C3.98 2.67 5.96 2.34 8 2 C8 4.31 8 6.62 8 9 C7.01 8.67 6.02 8.34 5 8 C5 7.01 5 6.02 5 5 C3.35 5 1.7 5 0 5 C0 3.35 0 1.7 0 0 Z " fill="#F7B226" transform="translate(153,113)"/>
<path d="M0 0 C0.33 0 0.66 0 1 0 C1 4.29 1 8.58 1 13 C1.99 13.33 2.98 13.66 4 14 C1.36 14 -1.28 14 -4 14 C-2.68 13.67 -1.36 13.34 0 13 C-0.2165625 12.37351562 -0.433125 11.74703125 -0.65625 11.1015625 C-0.9346875 10.28429687 -1.213125 9.46703125 -1.5 8.625 C-1.7784375 7.81289062 -2.056875 7.00078125 -2.34375 6.1640625 C-3 4 -3 4 -3 2 C-2.34 2 -1.68 2 -1 2 C-0.67 1.34 -0.34 0.68 0 0 Z " fill="#FDF4C6" transform="translate(150,110)"/>
<path d="M0 0 C0.66 0.33 1.32 0.66 2 1 C2.125 3.375 2.125 3.375 2 6 C1.34 6.66 0.68 7.32 0 8 C-3.625 7.625 -3.625 7.625 -7 7 C-6.67 5.68 -6.34 4.36 -6 3 C-3.69 3.66 -1.38 4.32 1 5 C0.67 3.35 0.34 1.7 0 0 Z " fill="#2A1501" transform="translate(49,117)"/>
<path d="M0 0 C0.66 0 1.32 0 2 0 C2 3.96 2 7.92 2 12 C1.34 11.67 0.68 11.34 0 11 C-0.144375 10.21625 -0.28875 9.4325 -0.4375 8.625 C-1.05384083 5.74874279 -1.77728856 4.83615293 -4 3 C-3.01 2.67 -2.02 2.34 -1 2 C-0.67 1.34 -0.34 0.68 0 0 Z " fill="#CFA44E" transform="translate(51,112)"/>
<path d="M0 0 C1.65 0 3.3 0 5 0 C5 3.3 5 6.6 5 10 C4.34 10 3.68 10 3 10 C3 8.02 3 6.04 3 4 C2.01 4 1.02 4 0 4 C0 2.68 0 1.36 0 0 Z " fill="#F0B43C" transform="translate(178,110)"/>
<path d="M0 0 C0.66 0.33 1.32 0.66 2 1 C1.360625 1.86625 0.72125 2.7325 0.0625 3.625 C-1.97548296 6.9598812 -2.63433093 9.16047478 -3 13 C-3.66 13 -4.32 13 -5 13 C-5.61538462 5.73846154 -5.61538462 5.73846154 -2.5 2 C-1.675 1.34 -0.85 0.68 0 0 Z " fill="#E8E8E4" transform="translate(57,57)"/>
<path d="M0 0 C0 3.63 0 7.26 0 11 C-1.32 11.33 -2.64 11.66 -4 12 C-3.67 11.34 -3.34 10.68 -3 10 C-2.6947378 5.34724024 -2.6947378 5.34724024 -4 1 C-1 0 -1 0 0 0 Z " fill="#FDF2CA" transform="translate(126,110)"/>
<path d="M0 0 C0.33 0 0.66 0 1 0 C1 2.97 1 5.94 1 9 C0.34 9 -0.32 9 -1 9 C-1 8.34 -1 7.68 -1 7 C-1.66 7 -2.32 7 -3 7 C-3 6.34 -3 5.68 -3 5 C-3.99 4.67 -4.98 4.34 -6 4 C-5.67 3.01 -5.34 2.02 -5 1 C-4.67 1.99 -4.34 2.98 -4 4 C-2.68 4 -1.36 4 0 4 C0 2.68 0 1.36 0 0 Z " fill="#F9AF23" transform="translate(134,112)"/>
<path d="M0 0 C3.36179774 1.44077046 5.59156268 3.24750021 8 6 C8 6.66 8 7.32 8 8 C5 8 5 8 2.3125 5.6875 C0 3 0 3 0 0 Z " fill="#242427" transform="translate(70,55)"/>
<path d="M0 0 C0.33 0 0.66 0 1 0 C1 4.29 1 8.58 1 13 C0.34 13 -0.32 13 -1 13 C-1.33 13.99 -1.66 14.98 -2 16 C-2 13.69 -2 11.38 -2 9 C-1.34 9 -0.68 9 0 9 C0 6.03 0 3.06 0 0 Z " fill="#F8B02B" transform="translate(91,103)"/>
<path d="M0 0 C1.32 0 2.64 0 4 0 C4 1.98 4 3.96 4 6 C2.68 5.67 1.36 5.34 0 5 C0 3.35 0 1.7 0 0 Z " fill="#FDF8D3" transform="translate(116,114)"/>
<path d="M0 0 C2.31 0 4.62 0 7 0 C6.67 1.65 6.34 3.3 6 5 C5.34 5 4.68 5 4 5 C3.67 4.34 3.34 3.68 3 3 C2.01 2.67 1.02 2.34 0 2 C0 1.34 0 0.68 0 0 Z " fill="#F2B034" transform="translate(165,111)"/>
<path d="M0 0 C0.99 0 1.98 0 3 0 C3 1.98 3 3.96 3 6 C1.68 5.67 0.36 5.34 -1 5 C-0.67 3.35 -0.34 1.7 0 0 Z " fill="#D6A44A" transform="translate(70,115)"/>
<path d="M0 0 C3 2 3 2 3.51171875 3.9453125 C3.67447917 5.96354167 3.83723958 7.98177083 4 10 C3.01 10 2.02 10 1 10 C-1.125 3.375 -1.125 3.375 0 0 Z " fill="#FEF2BD" transform="translate(110,112)"/>
<path d="M0 0 C0 3.69418201 -1.28179295 5.77836178 -3 9 C-3.66 9 -4.32 9 -5 9 C-4.50769231 3.46153846 -4.50769231 3.46153846 -1.9375 1.125 C-1.298125 0.75375 -0.65875 0.3825 0 0 Z " fill="#222224" transform="translate(60,57)"/>
<path d="M0 0 C2.475 0.495 2.475 0.495 5 1 C5 3.31 5 5.62 5 8 C3.5 6.6875 3.5 6.6875 2 5 C2 4.01 2 3.02 2 2 C1.34 2 0.68 2 0 2 C0 1.34 0 0.68 0 0 Z " fill="#E9B339" transform="translate(105,111)"/>
<path d="M0 0 C3.3 0 6.6 0 10 0 C9.01 0.33 8.02 0.66 7 1 C7 2.65 7 4.3 7 6 C5.5 4.625 5.5 4.625 4 3 C4 2.34 4 1.68 4 1 C2.68 0.67 1.36 0.34 0 0 Z " fill="#FEF9D1" transform="translate(126,109)"/>
<path d="M0 0 C0.33 0.66 0.66 1.32 1 2 C3.52733235 2.65555119 3.52733235 2.65555119 6 3 C4 5 4 5 1.375 5.125 C0.59125 5.08375 -0.1925 5.0425 -1 5 C-1.33 4.01 -1.66 3.02 -2 2 C-1.34 2 -0.68 2 0 2 C0 1.34 0 0.68 0 0 Z " fill="#EEBE5F" transform="translate(116,119)"/>
<path d="M0 0 C0.33 0 0.66 0 1 0 C1 2.31 1 4.62 1 7 C-0.875 7.625 -0.875 7.625 -3 8 C-3.66 7.34 -4.32 6.68 -5 6 C-4.01 6 -3.02 6 -2 6 C-2 5.34 -2 4.68 -2 4 C-1.34 4 -0.68 4 0 4 C0 2.68 0 1.36 0 0 Z " fill="#F0B12D" transform="translate(122,114)"/>
<path d="M0 0 C0 0.66 0 1.32 0 2 C-2.375 3.6875 -2.375 3.6875 -5 5 C-5.66 4.67 -6.32 4.34 -7 4 C-6.67 3.01 -6.34 2.02 -6 1 C-3 0 -3 0 0 0 Z " fill="#FCFCF0" transform="translate(157,123)"/>
<path d="M0 0 C1.32 0 2.64 0 4 0 C4 2.31 4 4.62 4 7 C3.34 5.68 2.68 4.36 2 3 C1.34 3 0.68 3 0 3 C0 2.01 0 1.02 0 0 Z " fill="#F3B130" transform="translate(142,111)"/>
<path d="M0 0 C1.88343932 3.76687864 2.22057835 5.02958963 2 9 C1.01 9 0.02 9 -1 9 C-0.67 6.03 -0.34 3.06 0 0 Z " fill="#E7B54F" transform="translate(183,114)"/>
<path d="M0 0 C0.33 0 0.66 0 1 0 C2.23076923 5.41538462 2.23076923 5.41538462 1.0625 8.375 C0.711875 8.91125 0.36125 9.4475 0 10 C-1.36952673 7.26094655 -1.12621361 5.02912668 -1 2 C-0.67 1.34 -0.34 0.68 0 0 Z " fill="#351E02" transform="translate(66,113)"/>
<path d="M0 0 C0.66 0 1.32 0 2 0 C2 1.65 2 3.3 2 5 C1.01 5 0.02 5 -1 5 C-1 1 -1 1 0 0 Z " fill="#FEFBEE" transform="translate(173,115)"/>
</svg>
